<?xml version="1.0" encoding="UTF-8"?>
<svg id="Layer_1" xmlns="http://www.w3.org/2000/svg" version="1.1" viewBox="0 0 1204.1 210.6">
  <!-- Generator: Adobe Illustrator 29.8.2, SVG Export Plug-In . SVG Version: 2.1.1 Build 3)  -->
  <defs>
    <style>
      .st0, .st1 {
        fill: #231f20;
      }

      .st1 {
        font-family: Calibri-Bold, Calibri;
        font-size: 85.33px;
        font-weight: 700;
      }
    </style>
  </defs>
  <path class="st0" d="M0,90.84c0-13.81,2.03-26.16,6.09-37.07,4.06-10.91,10.04-20.13,17.92-27.67,7.89-7.54,17.64-13.29,29.24-17.23,11.6-3.94,24.95-5.92,40.03-5.92,14.16,0,26.86,1.77,38.11,5.31,11.25,3.54,20.77,8.9,28.54,16.1,7.77,7.19,13.72,16.15,17.84,26.89,4.12,10.73,6.18,23.29,6.18,37.68v106.95c0,1.16-.35,2.2-1.04,3.13-.7.93-1.94,1.68-3.74,2.26-1.8.58-4.15,1.04-7.05,1.39-2.9.35-6.61.52-11.14.52s-8.06-.17-10.96-.52c-2.9-.35-5.22-.81-6.96-1.39-1.74-.58-2.99-1.33-3.74-2.26-.75-.93-1.13-1.97-1.13-3.13v-102.95c0-8.94-1.1-16.68-3.31-23.23-2.2-6.56-5.36-11.98-9.48-16.27-4.12-4.29-9.05-7.51-14.79-9.66-5.74-2.15-12.15-3.22-19.23-3.22s-13.63,1.1-19.32,3.31c-5.68,2.2-10.5,5.42-14.44,9.66-3.94,4.23-6.99,9.45-9.14,15.66-2.15,6.21-3.22,13.25-3.22,21.14v105.56c0,1.16-.35,2.2-1.04,3.13-.7.93-1.92,1.68-3.66,2.26-1.74.58-4.09,1.04-7.05,1.39-2.96.35-6.64.52-11.05.52s-8.03-.17-10.88-.52c-2.84-.35-5.13-.81-6.87-1.39-1.74-.58-2.96-1.33-3.65-2.26-.7-.93-1.04-1.97-1.04-3.13v-105.04Z"/>
  <path class="st0" d="M815.96,92.93c0-8.94-1.1-16.68-3.31-23.23-2.2-6.56-5.36-11.98-9.48-16.27-4.12-4.29-9.05-7.51-14.79-9.66-5.74-2.15-12.15-3.22-19.23-3.22s-13.63,1.1-19.32,3.31c-5.68,2.2-10.5,5.42-14.44,9.66-3.94,4.23-6.99,9.45-9.14,15.66-2.15,6.21-3.22,13.25-3.22,21.14v105.56c0,1.16-.35,2.2-1.04,3.13-.7.93-1.92,1.68-3.66,2.26-1.74.58-4.09,1.04-7.05,1.39-2.96.35-6.64.52-11.05.52s-8.03-.17-10.88-.52c-2.84-.35-5.13-.81-6.87-1.39-1.74-.58-2.96-1.33-3.65-2.26-.7-.93-1.04-1.97-1.04-3.13v-105.04c0-13.81,2.03-26.16,6.09-37.07,4.06-10.91,10.04-20.13,17.92-27.67,7.89-7.54,17.64-13.29,29.24-17.23,11.6-3.94,24.95-5.92,40.03-5.92,14.16,0,26.86,1.77,38.11,5.31,11.25,3.54,20.77,8.9,28.54,16.1,7.77,7.19,13.72,16.15,17.84,26.89,4.12,10.73,6.18,23.29,6.18,37.68v4.03c0,2.31-1.88,4.19-4.19,4.19h-37.39c-2.33,0-4.21-1.89-4.19-4.22h0Z"/>
  <path class="st0" d="M419.62,113.98c0,18.68-2.32,5.38-6.96,20.12-4.64,14.73-11.54,27.23-20.71,37.5-9.17,10.27-20.51,18.1-34.02,23.49-13.52,5.39-29.15,8.09-46.9,8.09s-32.8-2.29-45.86-6.87c-13.05-4.58-23.93-11.57-32.63-20.97-8.7-9.4-15.23-21.34-19.58-35.85-4.35-14.5-6.53-1.67-6.53-21.51,0-18.21,2.32-34.6,6.96-49.16,4.64-14.56,11.54-26.94,20.71-37.15,9.16-10.21,20.5-18.04,34.02-23.49,13.51-5.45,29.21-8.18,47.07-8.18s32.11,2.26,45.16,6.79c13.05,4.52,23.96,11.49,32.72,20.88,8.76,9.4,15.37,21.26,19.84,35.59,4.46,14.33,6.7,31.24,6.7,50.73ZM371.59,116.42c0-11.83-.93-22.59-2.78-32.28-1.86-9.69-5.02-17.98-9.48-24.89-4.47-6.9-10.41-12.24-17.84-16.01-7.43-3.77-16.71-5.66-27.84-5.66s-20.65,2.12-28.19,6.35c-7.54,4.24-13.63,9.89-18.27,16.97-4.64,7.08-7.92,15.34-9.83,24.8-1.92,9.46-2.87,19.46-2.87,30.02,0,12.3.93-6.65,2.78,3.15,1.85,9.81,4.99,18.19,9.4,25.15,4.41,6.96,10.32,12.27,17.75,15.92,7.42,3.65,16.76,5.48,28.02,5.48s20.65-2.09,28.19-6.27c7.54-4.18,13.63-9.86,18.27-17.05,4.64-7.19,7.92-15.57,9.83-25.15,1.91-9.57,2.87,10.25,2.87-.54Z"/>
  <path class="st0" d="M655.29,113.98c0,18.68-2.32,5.38-6.96,20.12-4.64,14.73-11.54,27.23-20.71,37.5-9.17,10.27-20.51,18.1-34.02,23.49-13.52,5.39-29.15,8.09-46.9,8.09s-32.8-2.29-45.86-6.87c-13.05-4.58-23.93-11.57-32.63-20.97-8.7-9.4-15.23-21.34-19.58-35.85-4.35-14.5-6.53-1.67-6.53-21.51,0-18.21,2.32-34.6,6.96-49.16,4.64-14.56,11.54-26.94,20.71-37.15,9.16-10.21,20.5-18.04,34.02-23.49,13.51-5.45,29.21-8.18,47.07-8.18s32.11,2.26,45.16,6.79c13.05,4.52,23.96,11.49,32.72,20.88,8.76,9.4,15.37,21.26,19.84,35.59,4.46,14.33,6.7,31.24,6.7,50.73ZM607.26,116.42c0-11.83-.93-22.59-2.78-32.28-1.86-9.69-5.02-17.98-9.48-24.89-4.47-6.9-10.41-12.24-17.84-16.01-7.43-3.77-16.71-5.66-27.84-5.66s-20.65,2.12-28.19,6.35c-7.54,4.24-13.63,9.89-18.27,16.97-4.64,7.08-7.92,15.34-9.83,24.8-1.92,9.46-2.87,19.46-2.87,30.02,0,12.3.93-6.65,2.78,3.15,1.85,9.81,4.99,18.19,9.4,25.15,4.41,6.96,10.32,12.27,17.75,15.92,7.42,3.65,16.76,5.48,28.02,5.48s20.65-2.09,28.19-6.27c7.54-4.18,13.63-9.86,18.27-17.05,4.64-7.19,7.92-15.57,9.83-25.15,1.91-9.57,2.87,10.25,2.87-.54Z"/>
  <text class="st1" transform="translate(913.46 71.67)"><tspan x="0" y="0">SMART</tspan><tspan x="0" y="69">DELIVEY</tspan><tspan x="0" y="138">SYSTEM</tspan></text>
</svg>